<svg width="584" height="350" viewBox="0 0 584 350" fill="none" xmlns="http://www.w3.org/2000/svg">
<g clip-path="url(#clip0)">
<path d="M498.833 346.139V311.944L380.424 307.522L380.424 346.139H498.833Z" fill="#00447F"/>
<path d="M451.996 142.817C450.281 149.316 439.18 149.135 437.465 142.727C430.967 117.727 431.418 116.012 437.916 91.0126C439.631 84.5145 446.219 86.4097 450.281 91.7346C466.165 112.402 458.403 117.818 451.996 142.817Z" fill="#EAB0A9"/>
<path d="M432.952 120.886C432.952 120.886 435.028 130.272 444.956 130.272C454.884 130.272 458.764 120.254 458.764 120.254C458.764 120.254 510.389 140.381 514.721 153.557C519.053 166.644 498.656 311.409 498.656 311.409L380.245 306.986C380.245 306.986 379.433 178.648 378.169 147.691C377.357 129.641 432.952 120.886 432.952 120.886Z" fill="#CCE7FF"/>
<path d="M444.053 116.103V118.36C468.782 118.36 484.035 101.031 486.562 80.3634C488.728 65.6523 475.822 58.4321 477.988 43.721C478.981 35.508 477.176 18.9919 446.58 18.9919C442.429 18.5406 434.667 33.2517 430.606 32.8005C401.905 32.8005 407.14 30.2734 407.862 40.1109C409.577 63.1252 402.898 72.9627 404.162 83.432C406.508 103.197 419.324 116.103 444.053 116.103Z" fill="#EAB0A9"/>
<path d="M438.638 79.8212C439.18 83.7923 444.775 89.0269 447.663 85.7779C450.551 82.5288 458.584 66.0126 452.266 61.9513C446.941 58.6119 437.736 73.7743 438.638 79.8212Z" fill="#EAB0A9"/>
<path d="M407.862 54.0996C407.23 68.54 394.866 71.6085 394.595 77.4749C394.324 83.3413 407.501 84.2439 407.501 84.2439L412.555 73.1428L407.862 54.0996Z" fill="#EAB0A9"/>
<path d="M421.31 67.4569C422.805 67.4569 424.017 65.6789 424.017 63.4858C424.017 61.2926 422.805 59.5146 421.31 59.5146C419.814 59.5146 418.602 61.2926 418.602 63.4858C418.602 65.6789 419.814 67.4569 421.31 67.4569Z" fill="#00447F"/>
<path d="M410.209 96.6083C409.667 96.6083 409.216 96.157 409.216 95.6155C409.216 95.074 409.667 94.6227 410.209 94.6227C416.978 94.6227 420.317 91.6444 421.49 90.2906C421.851 89.8394 422.483 89.8393 422.934 90.2004C423.386 90.5614 423.386 91.1931 423.025 91.6444C421.671 93.1787 417.79 96.6083 410.209 96.6083Z" fill="#00447F"/>
<path d="M516.345 286.048C515.082 286.86 516.706 290.921 508.764 294.26C503.71 296.427 493.06 293.538 487.104 294.802C477.176 296.878 471.671 302.564 468.331 299.766C463.909 295.975 483.674 290.289 483.674 290.289C483.674 290.289 465.172 298.773 462.555 295.524C459.938 292.185 484.486 287.311 484.486 287.311C484.486 287.311 462.014 295.795 459.757 290.831C458.494 288.033 462.916 284.964 471.31 282.889C474.288 282.167 464.902 285.687 462.826 284.423C459.216 282.257 470.949 272.961 479.703 270.344C489.27 267.456 505.515 269.892 512.013 272.329C518.511 274.766 516.345 286.048 516.345 286.048Z" fill="#EAB0A9"/>
<path d="M466.887 284.061C467.338 283.159 467.97 282.437 468.692 281.715C469.324 280.993 470.136 280.361 470.858 279.729C472.393 278.556 473.927 277.473 475.642 276.48C476.544 276.029 477.356 275.578 478.44 275.217C479.523 274.946 480.515 274.765 481.598 274.856C482.681 274.946 483.674 275.126 484.577 275.487C485.479 275.848 486.382 276.39 487.104 277.112V277.202H487.014C485.299 276.48 483.403 276.209 481.598 276.209C480.696 276.209 479.703 276.39 478.891 276.661C477.988 276.931 477.176 277.292 476.364 277.744C474.739 278.556 473.115 279.549 471.49 280.541C469.956 281.534 468.331 282.617 467.068 283.971H466.977C466.887 284.061 466.887 284.061 466.887 284.061Z" fill="#CC807A"/>
<path d="M465.985 291.823C466.255 291.282 466.707 290.83 467.068 290.469C467.519 290.018 467.88 289.657 468.331 289.296C469.234 288.574 470.136 287.942 471.039 287.22C472.934 285.957 474.92 284.874 476.995 283.881C478.078 283.43 479.071 282.888 480.425 282.617C481.598 282.347 482.772 282.256 483.945 282.166C486.291 282.076 488.548 282.256 490.804 283.069L490.894 283.159C490.894 283.159 490.894 283.249 490.804 283.249C488.548 283.249 486.382 283.339 484.125 283.61C483.042 283.791 481.959 283.971 480.876 284.152C479.793 284.422 478.8 284.874 477.717 285.235C475.642 286.137 473.656 287.13 471.67 288.213C470.678 288.755 469.685 289.296 468.782 289.838C467.88 290.469 466.887 291.011 466.165 291.823H466.075C465.985 291.913 465.985 291.913 465.985 291.823Z" fill="#CC807A"/>
<path d="M471.851 295.253C472.122 294.711 472.573 294.26 473.024 293.809C473.476 293.357 473.927 292.996 474.378 292.635C475.281 291.913 476.273 291.191 477.266 290.56C478.259 289.928 479.252 289.296 480.335 288.755C481.328 288.213 482.411 287.581 483.494 287.13C484.035 286.859 484.577 286.679 485.208 286.408C485.84 286.137 486.562 286.047 487.194 285.957C488.548 285.776 489.721 285.867 490.984 286.047C493.421 286.498 495.678 287.22 497.844 288.484C497.844 288.484 497.934 288.574 497.844 288.574H497.753C495.497 287.942 493.241 287.581 490.894 287.401C489.721 287.311 488.548 287.311 487.465 287.491C486.291 287.672 485.208 288.033 484.125 288.484C481.959 289.386 479.884 290.379 477.808 291.552C476.815 292.094 475.732 292.635 474.739 293.267C473.746 293.899 472.754 294.441 471.941 295.343H471.851V295.253Z" fill="#CC807A"/>
<path d="M512.194 149.677C525.461 166.554 566.887 218.449 569.414 236.319C571.941 254.189 517.158 293.449 517.158 293.449L504.974 271.427C504.974 271.427 518.15 252.204 522.031 244.984C525.912 237.763 489.721 191.103 489.721 191.103L512.194 149.677Z" fill="#CCE7FF"/>
<path d="M510.84 262.672C510.84 262.672 509.757 265.47 504.974 271.427C504.974 271.427 508.313 282.979 517.158 293.448" fill="#CCE7FF"/>
<path d="M510.84 262.672C510.659 263.575 510.298 264.387 510.028 265.29C509.667 266.102 509.215 266.914 508.764 267.636C508.313 268.448 507.862 269.17 507.32 269.892C506.779 270.614 506.237 271.337 505.696 272.059L505.876 271.066C506.418 272.961 507.23 274.947 508.042 276.842C508.854 278.737 509.757 280.632 510.659 282.528C511.562 284.423 512.645 286.228 513.728 288.033C514.721 289.838 515.984 291.553 517.157 293.358L517.067 293.448C515.713 291.824 514.45 290.199 513.277 288.394C512.103 286.679 510.93 284.874 509.937 282.979C508.945 281.174 507.952 279.279 507.14 277.293C506.237 275.398 505.515 273.412 504.883 271.336V271.246V271.156C505.966 269.802 507.049 268.448 508.042 267.004C508.584 266.282 509.035 265.56 509.486 264.838C509.937 264.116 510.389 263.304 510.75 262.582L510.84 262.672Z" fill="#00447F"/>
<path d="M489.811 191.103C491.346 192.998 492.699 194.893 493.963 196.788C494.685 197.691 495.226 198.684 495.948 199.586C496.309 200.038 496.58 200.579 496.851 201.03L497.844 202.474C498.475 203.467 499.107 204.37 499.739 205.362C500.371 206.355 501.003 207.258 501.544 208.25C502.717 210.236 503.981 212.222 505.064 214.388L504.883 214.478C503.349 212.763 501.725 211.048 500.281 209.153C498.836 207.348 497.483 205.453 496.129 203.467C494.865 201.482 493.692 199.496 492.519 197.42C491.436 195.344 490.353 193.269 489.541 191.103H489.811Z" fill="#00447F"/>
<path d="M432.862 115.02C432.862 115.02 437.194 117.096 441.346 117.186C442.158 117.186 441.978 117.728 441.436 117.908C438.277 118.811 432.862 118.63 432.862 118.63C432.772 116.735 432.862 115.02 432.862 115.02Z" fill="#00447F"/>
<path d="M391.526 287.853C396.761 293.809 444.414 302.112 447.663 298.954C450.912 295.795 459.125 216.463 456.057 212.853C453.078 209.243 405.245 196.517 399.92 201.752C394.595 206.987 386.292 281.896 391.526 287.853Z" fill="white"/>
<path d="M443.421 300.849C442.97 300.849 442.429 300.849 441.797 300.849C435.028 300.578 423.476 298.864 412.916 296.607C405.786 295.073 393.512 291.914 390.624 288.755C386.743 284.333 389.631 253.828 390.534 244.532C392.068 230.001 395.497 204.46 399.017 201.03C400.281 199.767 402.988 199.225 407.591 199.496C422.573 200.218 453.981 208.792 456.869 212.221C459.125 214.929 456.508 243.99 455.244 256.355C454.522 263.214 451.003 297.42 448.385 299.947C447.934 300.308 446.941 300.849 443.421 300.849ZM405.786 201.662C401.996 201.662 401.003 202.384 400.732 202.564C398.837 204.46 395.407 220.705 392.88 244.622C390.263 269.893 390.624 285.055 392.339 287.041C397.212 292.546 442.79 300.488 446.761 298.051C449.92 293.268 457.32 217.817 455.064 213.485C453.078 211.138 422.754 202.384 407.411 201.662C406.869 201.662 406.328 201.662 405.786 201.662Z" fill="#00447F"/>
<path d="M373.657 270.614C378.35 274.225 389.631 273.051 395.407 275.849C405.064 280.362 409.487 288.304 413.368 285.596C418.422 282.076 399.649 271.246 399.649 271.246C399.649 271.246 416.707 285.145 419.956 281.806C423.205 278.466 400.462 265.921 400.462 265.921C400.462 265.921 420.497 282.257 423.656 276.842C425.461 273.773 418.783 265.199 410.66 261.048C407.772 259.604 420.407 267.456 422.664 266.463C426.725 264.658 415.443 253.467 407.14 248.593C398.115 243.178 380.064 245.615 373.115 247.149C366.075 248.412 366.256 264.929 373.657 270.614Z" fill="#EAB0A9"/>
<path d="M413.909 263.304C412.465 262.762 411.111 262.311 409.757 261.77C409.035 261.499 408.404 261.228 407.772 260.957L405.786 260.145L403.801 259.243C403.169 258.882 402.537 258.611 401.905 258.159C400.642 257.437 399.378 256.625 398.205 255.542V255.452H398.295C401.093 256.445 403.801 257.528 406.508 258.701C407.862 259.333 409.126 259.965 410.479 260.687C411.743 261.409 413.006 262.221 414.089 263.214V263.304C413.999 263.394 413.999 263.394 413.909 263.304Z" fill="#CC807A"/>
<path d="M416.255 276.391C415.533 275.578 414.631 275.037 413.728 274.405C412.826 273.773 411.923 273.232 411.021 272.69C409.125 271.607 407.32 270.434 405.515 269.441C404.613 268.99 403.71 268.448 402.718 267.997L399.829 266.553C397.934 265.56 395.949 264.477 394.053 263.214C394.053 263.214 393.963 263.124 394.053 263.124H394.144C396.219 263.846 398.295 264.568 400.371 265.38C402.447 266.192 404.432 267.004 406.328 268.087C408.223 269.17 410.028 270.434 411.833 271.788C412.736 272.42 413.548 273.142 414.36 273.864C415.172 274.586 415.985 275.398 416.526 276.391V276.481C416.346 276.391 416.255 276.391 416.255 276.391Z" fill="#CC807A"/>
<path d="M410.66 279.279C410.028 278.557 409.216 278.106 408.494 277.564C407.681 277.113 406.959 276.571 406.147 276.12L401.364 273.412C400.551 272.961 399.739 272.51 399.017 272.059C398.205 271.607 397.393 271.156 396.58 270.705C394.956 269.712 393.421 268.719 391.887 267.456V267.365H391.977C393.782 267.997 395.497 268.719 397.212 269.532C398.927 270.344 400.642 271.156 402.176 272.149C403.8 273.142 405.335 274.225 406.869 275.308C407.591 275.849 408.313 276.481 409.035 277.113C409.757 277.745 410.389 278.376 410.84 279.279V279.369C410.75 279.279 410.75 279.279 410.66 279.279Z" fill="#CC807A"/>
<path d="M379.613 142.276C343.783 184.153 326.274 226.662 326.184 243.629C326.094 260.146 371.581 270.615 371.581 270.615L382.05 243.72L370.317 236.86L397.032 183.251L379.613 142.276Z" fill="#CCE7FF"/>
<path d="M353.891 230.904C355.155 230.092 356.599 229.731 358.133 229.641C358.855 229.55 359.577 229.641 360.39 229.731C361.112 229.911 361.834 230.092 362.556 230.363C363.278 230.633 363.909 230.994 364.541 231.355C365.173 231.807 365.714 232.168 366.256 232.709C367.339 233.702 368.151 234.875 368.693 236.319L368.602 236.5C367.519 235.688 366.527 234.785 365.353 234.063C364.27 233.341 363.007 232.709 361.834 232.258C360.57 231.807 359.307 231.446 357.953 231.265C356.599 231.085 355.245 231.085 353.982 231.175L353.891 230.904Z" fill="#00447F"/>
<path d="M387.375 169.442C387.465 172.691 387.285 175.85 387.014 179.099C386.924 180.723 386.743 182.257 386.563 183.882L386.021 188.575L385.389 193.268L384.667 197.961C384.216 201.12 383.675 204.189 383.223 207.348H383.043C382.772 204.189 382.953 200.94 383.133 197.781C383.314 194.622 383.675 191.463 384.036 188.304C384.848 181.987 385.931 175.669 387.104 169.442H387.375Z" fill="#00447F"/>
<path d="M375.191 239.658C375.191 239.658 380.335 241.553 382.14 243.719C382.14 243.719 376.364 258.882 372.213 269.08" fill="#CCE7FF"/>
<path d="M375.191 239.568C375.913 239.568 376.545 239.749 377.267 239.929C377.899 240.11 378.621 240.38 379.252 240.651C379.884 240.922 380.516 241.283 381.148 241.644C381.779 242.005 382.321 242.456 382.953 243.088L383.404 243.539L383.133 244.171L380.606 250.489C379.704 252.564 378.891 254.73 377.989 256.806L375.281 263.034C374.288 265.109 373.386 267.185 372.303 269.171H372.213C375.552 260.777 378.801 252.294 382.05 243.81V243.9C381.148 242.907 379.974 242.185 378.801 241.554C377.628 240.922 376.364 240.29 375.101 239.839L375.191 239.568Z" fill="#00447F"/>
<path d="M470.497 135.147C470.497 134.876 470.317 134.515 470.046 134.425C469.775 134.244 469.505 134.154 469.144 134.244L439.18 142.006L423.025 129.37C422.754 129.19 422.393 129.1 422.032 129.19C421.671 129.28 421.4 129.641 421.4 130.002C421.4 130.002 417.429 148.684 416.436 153.017C416.346 153.378 416.436 153.739 416.707 154.009C416.978 154.28 417.339 154.37 417.7 154.28L442.88 147.601L461.653 162.313C461.833 162.493 462.104 162.493 462.284 162.493C462.555 162.493 462.826 162.403 463.006 162.132C465.804 159.334 470.949 140.381 470.497 135.147ZM468.422 137.854L419.053 152.024C418.963 152.024 418.873 152.024 418.873 152.024C418.512 152.024 418.241 151.843 418.151 151.482C418.061 151.121 418.241 150.67 418.692 150.58L468.061 136.41C468.422 136.32 468.873 136.5 468.963 136.952C469.053 137.313 468.783 137.764 468.422 137.854Z" fill="#0087FF"/>
<path d="M440.263 67.6373H433.043C432.501 67.6373 432.14 67.1861 432.14 66.7348C432.14 66.2835 432.591 65.8323 433.043 65.8323H440.263C440.804 65.8323 441.165 66.2835 441.165 66.7348C441.165 67.1861 440.804 67.6373 440.263 67.6373Z" fill="#00447F"/>
<path d="M407.682 67.6376C407.23 67.6376 406.779 67.5473 406.418 67.4571C404.523 67.0058 403.259 65.5618 403.259 64.0275C403.259 63.486 403.711 63.125 404.162 63.125C404.613 63.125 405.064 63.5763 405.064 64.0275C405.064 64.8398 405.967 65.4716 406.869 65.6521C407.862 65.9228 409.035 65.7423 409.487 64.8398C409.757 64.3885 410.299 64.208 410.75 64.4788C411.202 64.7495 411.382 65.291 411.111 65.7423C410.389 67.0961 409.035 67.6376 407.682 67.6376Z" fill="#00447F"/>
<path d="M425.551 77.2036C420.046 77.2036 412.284 74.4058 410.75 72.691C408.133 69.8932 409.577 58.6117 411.923 54.2796C412.645 52.9258 414.631 52.3843 418.061 52.3843C423.566 52.4745 432.681 54.5503 433.945 57.1676C435.75 60.868 433.674 70.0737 431.508 74.4961C430.876 75.8499 429.523 76.6621 427.447 77.0231C426.815 77.1134 426.183 77.2036 425.551 77.2036ZM417.519 54.1893C414.721 54.1893 413.638 54.7308 413.458 55.0918C411.292 59.2434 410.389 69.6225 412.014 71.4275C413.277 72.7813 422.122 75.9401 427.086 75.2181C428.53 75.0376 429.432 74.4961 429.793 73.7741C431.959 69.2614 433.584 60.7777 432.23 57.9799C431.598 56.7164 424.378 54.3698 417.97 54.1893C417.79 54.1893 417.609 54.1893 417.519 54.1893Z" fill="#00447F"/>
<path d="M462.916 6.08535C441.165 4.46081 431.147 19.1719 411.653 13.3958C395.588 8.61241 393.783 24.4066 397.844 32.6195C400.913 38.8469 413.638 49.3162 430.786 50.9407C464.45 54.1898 473.476 44.6231 478.891 39.4787C485.75 32.9805 484.577 7.70989 462.916 6.08535Z" fill="#00447F"/>
<path d="M456.779 27.5653C470.407 13.125 488.999 16.8253 497.302 37.7638C501.544 48.5039 498.566 65.4713 496.039 75.3088C491.436 92.7274 470.768 96.7888 461.111 82.3484C453.71 71.5182 428.53 57.4388 456.779 27.5653Z" fill="#00447F"/>
<path d="M446.4 80.0917C449.288 83.5213 458.945 86.0484 460.84 81.8968C462.645 77.7452 463.638 59.1532 453.62 57.9799C445.227 57.0774 442.068 74.8571 446.4 80.0917Z" fill="#EAB0A9"/>
<path d="M147.55 303.934L57.6479 300.241L65.7003 347.112C93.333 350.933 126.632 346.603 157.194 347.112L147.55 303.934Z" fill="#00447F"/>
<path d="M84.5163 43.7788C55.6103 56.0034 50.7714 81.9807 52.5541 90.3851C53.5728 94.0779 40.5842 93.9506 38.8015 111.523C37.5281 123.493 45.5505 129.096 45.5505 132.407C45.5505 135.718 30.2697 146.669 32.3071 166.407C34.3446 186.144 54.5916 202.444 72.0371 189.201C89.4826 175.83 101.07 150.489 100.306 149.216C99.5424 147.943 93.1754 91.5311 93.1754 91.5311L84.5163 43.7788Z" fill="#00447F"/>
<path d="M149.205 194.931C149.205 194.931 169.579 239.627 175.691 242.047C181.804 244.466 235.668 215.051 235.668 215.051L243.691 229.186C243.691 229.186 181.167 277.447 165.504 272.226C149.841 267.005 125.902 220.526 125.902 220.526L149.205 194.931Z" fill="#CC807A"/>
<path d="M119.28 49.2543C111.257 43.0146 112.658 52.6924 100.816 53.3291C96.486 53.5838 100.179 45.9434 95.9767 46.1981C84.1341 46.8348 82.606 50.5277 75.3477 57.5313C66.9433 65.4264 69.3627 81.0892 71.2728 92.5497C73.947 105.92 66.5613 91.913 69.1081 105.284C71.6548 120.055 73.947 128.459 85.9169 135.59C87.1903 142.467 88.209 153.927 91.6471 158.002C95.722 162.841 117.879 167.68 119.662 161.44C122.718 150.617 112.531 145.396 112.149 138.901C134.306 141.321 143.22 126.549 144.238 111.141C145.512 97.6433 142.71 74.5948 135.452 63.771C122.336 44.0334 128.321 56.2579 119.28 49.2543Z" fill="#CC807A"/>
<path d="M116.224 146.797C116.224 146.797 115.205 155.965 108.074 157.493C97.1229 159.785 87.5724 146.415 87.5724 146.415L68.5988 188.564L57.5203 241.028L73.183 309.155L147.422 304.061C147.422 304.061 146.658 263.822 150.096 240.518C153.534 217.215 156.845 197.605 148.823 187.163C141.437 177.358 119.28 150.107 116.224 146.797Z" fill="#CCE7FF"/>
<path d="M125.774 93.9508C126.666 90.258 131.377 86.1831 137.49 88.9846" stroke="#00447F" stroke-width="1.4899" stroke-miterlimit="10" stroke-linecap="round"/>
<path d="M142.201 119.673C145.512 119.546 148.823 118.4 150.096 116.999C156.591 109.996 145.639 108.722 144.493 94.9695" fill="#CC807A"/>
<path d="M109.857 105.921C109.475 109.996 103.362 116.745 99.7969 114.325C96.2314 111.906 86.1716 97.1345 93.0479 91.5316C99.0328 86.6927 110.493 99.6813 109.857 105.921Z" fill="#CC807A"/>
<path d="M133.61 101.33C135.015 101.258 136.066 99.4914 135.958 97.3843C135.849 95.2772 134.623 93.6276 133.218 93.6997C131.814 93.7718 130.763 95.5385 130.871 97.6455C130.979 99.7526 132.205 101.402 133.61 101.33Z" fill="#00447F"/>
<path d="M123.865 120.437C127.175 124.003 131.76 125.531 136.089 125.149" stroke="#00447F" stroke-width="1.4899" stroke-miterlimit="10" stroke-linecap="round"/>
<path d="M232.612 216.706C232.612 216.706 236.942 202.062 239.616 196.968C242.29 191.875 245.601 201.934 242.035 208.047C242.035 208.047 260.881 190.983 262.919 192.384C266.102 194.549 247.511 211.103 247.511 211.103C247.511 211.103 268.777 191.238 271.069 193.275C274.252 196.204 250.058 216.833 250.058 216.833C250.058 216.833 266.484 202.826 268.267 204.863C270.687 207.537 252.477 221.035 252.477 221.035C252.477 221.035 262.028 214.668 263.174 216.324C263.938 217.47 252.222 230.331 239.234 230.968L232.612 216.706Z" fill="#CC807A"/>
<path d="M238.852 220.399L240.125 217.979C240.507 217.215 240.889 216.451 241.144 215.687C241.399 214.923 241.526 214.159 241.526 213.395C241.526 212.631 241.526 211.74 241.526 210.721C242.417 212.376 242.545 214.286 242.035 216.069C241.781 216.961 241.271 217.725 240.762 218.489C240.507 218.871 240.125 219.125 239.871 219.507L238.852 220.399C238.852 220.526 238.852 220.526 238.852 220.399Z" fill="#895553"/>
<path d="M112.404 138.902C112.404 138.902 106.291 136.864 103.49 135.718C102.726 135.463 102.853 135.591 103.108 136.1C104.381 138.138 113.422 142.34 113.422 142.34C112.658 140.684 112.404 138.902 112.404 138.902Z" fill="#00447F"/>
<path d="M114.059 165.516L97.123 161.696C98.1418 164.242 104.127 174.302 105.273 175.448L120.681 157.875C120.681 157.875 124.501 168.317 124.883 170.737L111.767 167.935L114.059 165.516Z" fill="#0087FF" stroke="#0087FF" stroke-width="1.1426" stroke-miterlimit="10" stroke-linecap="round" stroke-linejoin="round"/>
<path d="M97.7598 162.714L124.501 170.1" stroke="#CCE7FF" stroke-width="0.7793" stroke-miterlimit="10" stroke-linecap="round" stroke-linejoin="round"/>
<path d="M105.018 54.6027C123.227 34.7378 144.748 59.0596 144.748 68.1007C144.748 74.5951 130.995 80.4527 118.261 76.8872C105.527 73.3217 96.7409 63.6439 105.018 54.6027Z" fill="#00447F"/>
<path d="M116.988 68.6101C116.988 78.4153 112.404 114.834 82.9882 124.767C53.5728 134.699 51.1533 88.0931 56.6289 72.303C62.2319 56.1309 92.1567 27.4795 120.044 46.071C147.931 64.6626 116.988 68.6101 116.988 68.6101Z" fill="#00447F"/>
<path d="M68.3443 272.481C67.4529 264.585 83.8797 222.436 83.8797 222.436L86.4265 187.29C86.4265 187.29 83.8797 169.081 73.6925 177.995C63.5054 186.908 41.603 247.14 41.2209 271.589C40.9663 286.743 56.0904 327.256 64.2401 344.192C70.4797 345.084 77.3854 343.428 83.8797 344.192C80.4415 326.11 69.2356 279.739 68.3443 272.481Z" fill="#CC807A"/>
<path d="M80.5689 250.069C82.7337 243.447 93.4302 201.807 93.4302 201.807L87.5726 146.287C44.2771 185.89 38.5468 218.489 41.221 233.515C42.4944 240.391 77.1307 260.893 80.5689 250.069Z" fill="#CCE7FF"/>
<path d="M97.2501 207.92C97.1227 210.339 96.7407 212.758 96.486 215.051C96.2313 217.47 95.722 219.762 95.34 222.182L94.7033 225.747L93.9392 229.313C93.4299 231.605 92.7932 234.024 92.1565 236.316C91.5198 238.608 90.7557 240.901 89.9917 243.193C89.2277 245.485 88.209 247.777 86.9356 249.942L86.4262 250.706L85.7895 251.47C85.2801 251.979 84.7708 252.361 84.1341 252.743C82.988 253.507 81.5873 253.889 80.3139 254.016C79.0405 254.144 77.7671 254.144 76.4937 253.889C75.2203 253.762 74.0743 253.507 72.9282 253.125V252.998C75.3477 253.252 77.6398 253.507 80.0592 252.998C82.3513 252.616 84.5161 251.215 85.6622 249.05C87.9543 244.848 89.2277 240.264 90.6284 235.68C93.1752 226.511 95.2126 217.088 97.1227 207.792L97.2501 207.92Z" fill="#00447F"/>
<path d="M323.364 119.893C326.038 115.945 328.075 111.488 329.476 106.522C332.914 94.17 332.787 71.7582 327.693 70.8668C322.599 69.9754 275.484 85.2562 274.592 88.0577C273.701 90.8591 323.364 119.893 323.364 119.893Z" fill="#FF6D4D"/>
<path d="M198.443 104.994C196.66 110.469 208.248 136.956 212.578 136.319C216.907 135.683 262.495 94.9339 259.566 94.5519C256.128 94.1698 199.589 101.556 198.443 104.994Z" fill="#FFBA0D"/>
<path d="M265.169 32.2825C247.724 32.7918 223.147 49.6007 222.893 60.2972C222.765 63.4807 272.81 89.3306 274.592 88.0572C276.375 86.7838 265.169 32.2825 265.169 32.2825Z" fill="#F5D0EB"/>
<path d="M302.098 23.3689C298.66 26.1704 285.544 73.5407 287.454 74.3047C291.147 75.8328 342.719 60.2974 344.374 56.7319C345.775 53.6757 342.337 42.5972 328.584 32.6647C316.869 24.2603 304.772 21.3315 302.098 23.3689Z" fill="#A6D5FF"/>
<path d="M255.364 139.375C281.723 146.379 310.12 139.63 323.745 119.256C323.745 119.256 278.794 87.8028 274.592 88.0574C270.39 88.3121 239.065 125.368 237.536 128.424C236.008 131.48 245.813 136.829 255.364 139.375Z" fill="#00447F"/>
<path d="M209.522 61.4434C207.612 61.6981 206.466 65.5182 205.702 67.5557C202.391 77.1061 197.934 91.2408 201.627 93.1509C205.32 95.1884 257.02 92.8962 258.166 89.3307C259.312 85.7652 211.432 61.1887 209.522 61.4434Z" fill="#A6D5FF"/>
<path d="M290.382 37.1213C289.745 35.3386 284.143 33.8105 281.596 33.0465C276.629 31.5184 270.645 31.7731 265.169 32.1551C265.169 32.1551 272.809 88.5665 274.592 87.9298C276.375 87.4205 291.019 39.0314 290.382 37.1213Z" fill="#006DCC"/>
<path d="M584 343.706H0V352.466H584V343.706Z" fill="#CCE7FF"/>
</g>
<defs>
<clipPath id="clip0">
<rect width="584" height="349.427" fill="white" transform="translate(0 0.119141)"/>
</clipPath>
</defs>
</svg>
